<mxfile host="app.diagrams.net" modified="2024-07-04T19:53:32.754Z" agent="Mozilla/5.0 (Windows NT 10.0; Win64; x64; rv:127.0) Gecko/20100101 Firefox/127.0" etag="l0srOqxErtTcpJH_dhLQ" version="24.6.4" type="device">
  <diagram name="Strona-1" id="6HkIy6ulbnla7I3tChoI">
    <mxGraphModel dx="1687" dy="887" grid="1" gridSize="10" guides="1" tooltips="1" connect="1" arrows="1" fold="1" page="1" pageScale="1" pageWidth="827" pageHeight="1169" math="0" shadow="0">
      <root>
        <mxCell id="0" />
        <mxCell id="1" parent="0" />
        <mxCell id="0xC4HbDB4452kfhdaKBw-2" value="" style="rounded=0;whiteSpace=wrap;html=1;fillColor=#f5f5f5;fontColor=#333333;strokeColor=#666666;" parent="1" vertex="1">
          <mxGeometry x="230" y="180" width="546" height="370" as="geometry" />
        </mxCell>
        <mxCell id="0xC4HbDB4452kfhdaKBw-9" value="&lt;div align=&quot;center&quot;&gt;Zegar &quot;RTCDS1307ZN+T&amp;amp;R&quot;&lt;/div&gt;" style="rounded=0;whiteSpace=wrap;html=1;fillColor=#dae8fc;strokeColor=#6c8ebf;align=center;" parent="1" vertex="1">
          <mxGeometry x="610" y="380" width="153" height="60" as="geometry" />
        </mxCell>
        <mxCell id="0xC4HbDB4452kfhdaKBw-16" value="Zewnętrzny zasilacz impulsowy: &quot;TRH100A120-11E12 VI&quot;" style="rounded=0;whiteSpace=wrap;html=1;fillColor=#e1d5e7;strokeColor=#9673a6;" parent="1" vertex="1">
          <mxGeometry x="566.5" y="50" width="209.5" height="100" as="geometry" />
        </mxCell>
        <mxCell id="0xC4HbDB4452kfhdaKBw-44" value="Pompa wody" style="rounded=0;whiteSpace=wrap;html=1;fillColor=#f8cecc;strokeColor=#b85450;" parent="1" vertex="1">
          <mxGeometry x="290" y="50" width="159" height="80" as="geometry" />
        </mxCell>
        <mxCell id="0xC4HbDB4452kfhdaKBw-46" value="&lt;div&gt;6x Sterownik diod&lt;/div&gt;&lt;div&gt;&quot;A8513KLYTR-T&quot;&lt;/div&gt;" style="rounded=0;whiteSpace=wrap;html=1;fillColor=#e1d5e7;strokeColor=#9673a6;" parent="1" vertex="1">
          <mxGeometry x="20" y="190" width="159" height="80" as="geometry" />
        </mxCell>
        <mxCell id="0xC4HbDB4452kfhdaKBw-49" value="Urządzenie" style="text;html=1;align=center;verticalAlign=middle;whiteSpace=wrap;rounded=0;" parent="1" vertex="1">
          <mxGeometry x="473" y="150" width="60" height="30" as="geometry" />
        </mxCell>
        <mxCell id="PKqtleqCOF1Dtrx_e0O3-1" value="&lt;div&gt;Jednostka sterująca&lt;/div&gt;&lt;div&gt;&quot;Rasbperry Pi 4B&quot;&lt;/div&gt;" style="rounded=0;whiteSpace=wrap;html=1;fillColor=#f8cecc;strokeColor=#b85450;" vertex="1" parent="1">
          <mxGeometry x="20" y="330" width="159" height="80" as="geometry" />
        </mxCell>
        <mxCell id="PKqtleqCOF1Dtrx_e0O3-3" value="Panel LED&lt;br&gt;&quot;Mid Power – Horticulture LEDs Size 2835&quot;" style="rounded=0;whiteSpace=wrap;html=1;fillColor=#e1d5e7;strokeColor=#9673a6;" vertex="1" parent="1">
          <mxGeometry x="20" y="50" width="159" height="80" as="geometry" />
        </mxCell>
        <mxCell id="PKqtleqCOF1Dtrx_e0O3-5" value="&lt;p align=&quot;center&quot; style=&quot;line-height: 115%&quot; class=&quot;western&quot;&gt;Czujnik temperatury i wilgotności&lt;br&gt;&quot;SHT35&quot;&lt;/p&gt;" style="rounded=0;whiteSpace=wrap;html=1;fillColor=#dae8fc;strokeColor=#6c8ebf;align=left;" vertex="1" parent="1">
          <mxGeometry x="220" y="580" width="159" height="80" as="geometry" />
        </mxCell>
        <mxCell id="PKqtleqCOF1Dtrx_e0O3-6" value="&lt;p align=&quot;center&quot; style=&quot;line-height: 115%; text-indent: 0.64cm; margin-bottom: 0.21cm&quot;&gt;Czujnik oświetlenia&lt;br&gt;&quot;AS7341&quot;&lt;/p&gt;" style="rounded=0;whiteSpace=wrap;html=1;fillColor=#dae8fc;strokeColor=#6c8ebf;align=center;" vertex="1" parent="1">
          <mxGeometry x="420.5" y="580" width="159" height="80" as="geometry" />
        </mxCell>
        <mxCell id="PKqtleqCOF1Dtrx_e0O3-7" value="Czujnik stężenia dwutlenku węgla&lt;br&gt;&quot;SCD41&quot;" style="rounded=0;whiteSpace=wrap;html=1;fillColor=#dae8fc;strokeColor=#6c8ebf;" vertex="1" parent="1">
          <mxGeometry x="20" y="580" width="159" height="80" as="geometry" />
        </mxCell>
        <mxCell id="PKqtleqCOF1Dtrx_e0O3-8" value="2x Przekaźniki&lt;br&gt;&quot;G5LE-14 DC5&quot;" style="rounded=0;whiteSpace=wrap;html=1;fillColor=#f8cecc;strokeColor=#b85450;align=center;" vertex="1" parent="1">
          <mxGeometry x="426.5" y="200" width="153" height="60" as="geometry" />
        </mxCell>
        <mxCell id="PKqtleqCOF1Dtrx_e0O3-9" value="Przetwornik A/C&lt;br&gt;&quot;MCP3208&quot;" style="rounded=0;whiteSpace=wrap;html=1;fillColor=#dae8fc;strokeColor=#6c8ebf;align=center;" vertex="1" parent="1">
          <mxGeometry x="250" y="470" width="153" height="60" as="geometry" />
        </mxCell>
        <mxCell id="PKqtleqCOF1Dtrx_e0O3-10" value="&lt;div&gt;Generator PWM&lt;/div&gt;&lt;div&gt;&quot;PCA9685PW&quot;&lt;/div&gt;" style="rounded=0;whiteSpace=wrap;html=1;fillColor=#dae8fc;strokeColor=#6c8ebf;align=center;" vertex="1" parent="1">
          <mxGeometry x="250" y="200" width="153" height="60" as="geometry" />
        </mxCell>
        <mxCell id="PKqtleqCOF1Dtrx_e0O3-11" value="Regulator napięcia 5V&lt;br&gt; &quot;LM2678S-5.0&quot;" style="rounded=0;whiteSpace=wrap;html=1;fillColor=#f8cecc;strokeColor=#b85450;align=center;" vertex="1" parent="1">
          <mxGeometry x="610" y="200" width="153" height="60" as="geometry" />
        </mxCell>
        <mxCell id="PKqtleqCOF1Dtrx_e0O3-12" value="Regulator napięcia 3V &quot;MCP1603&quot;" style="rounded=0;whiteSpace=wrap;html=1;fillColor=#dae8fc;strokeColor=#6c8ebf;align=center;" vertex="1" parent="1">
          <mxGeometry x="610" y="290" width="153" height="60" as="geometry" />
        </mxCell>
        <mxCell id="PKqtleqCOF1Dtrx_e0O3-13" value="UART - RS485&lt;br&gt;&quot;MAX485+&quot;" style="rounded=0;whiteSpace=wrap;html=1;fillColor=#f8cecc;strokeColor=#b85450;align=center;" vertex="1" parent="1">
          <mxGeometry x="610" y="470" width="153" height="60" as="geometry" />
        </mxCell>
        <mxCell id="PKqtleqCOF1Dtrx_e0O3-14" value="Wyprowadzenia służące do komunikacji" style="rounded=0;whiteSpace=wrap;html=1;align=center;" vertex="1" parent="1">
          <mxGeometry x="250" y="340" width="153" height="60" as="geometry" />
        </mxCell>
        <mxCell id="PKqtleqCOF1Dtrx_e0O3-16" value="Miernik składu gleby&lt;br&gt;&quot;NPK&quot;" style="rounded=0;whiteSpace=wrap;html=1;fillColor=#f8cecc;strokeColor=#b85450;" vertex="1" parent="1">
          <mxGeometry x="617" y="580" width="159" height="80" as="geometry" />
        </mxCell>
        <mxCell id="PKqtleqCOF1Dtrx_e0O3-18" value="" style="endArrow=classic;html=1;rounded=0;entryX=0.5;entryY=0;entryDx=0;entryDy=0;exitX=0.5;exitY=1;exitDx=0;exitDy=0;startArrow=classic;startFill=1;" edge="1" parent="1" source="PKqtleqCOF1Dtrx_e0O3-14" target="PKqtleqCOF1Dtrx_e0O3-9">
          <mxGeometry width="50" height="50" relative="1" as="geometry">
            <mxPoint x="376.5" y="450" as="sourcePoint" />
            <mxPoint x="426.5" y="400" as="targetPoint" />
          </mxGeometry>
        </mxCell>
        <mxCell id="PKqtleqCOF1Dtrx_e0O3-19" value="SPI" style="edgeLabel;html=1;align=center;verticalAlign=middle;resizable=0;points=[];" vertex="1" connectable="0" parent="PKqtleqCOF1Dtrx_e0O3-18">
          <mxGeometry x="-0.1886" y="2" relative="1" as="geometry">
            <mxPoint x="-2" y="2" as="offset" />
          </mxGeometry>
        </mxCell>
        <mxCell id="PKqtleqCOF1Dtrx_e0O3-20" value="" style="endArrow=classic;html=1;rounded=0;entryX=0.5;entryY=0;entryDx=0;entryDy=0;exitX=1;exitY=0.75;exitDx=0;exitDy=0;startArrow=classic;startFill=1;" edge="1" parent="1" source="PKqtleqCOF1Dtrx_e0O3-14" target="PKqtleqCOF1Dtrx_e0O3-6">
          <mxGeometry width="50" height="50" relative="1" as="geometry">
            <mxPoint x="449" y="410" as="sourcePoint" />
            <mxPoint x="449" y="480" as="targetPoint" />
            <Array as="points">
              <mxPoint x="500" y="386" />
            </Array>
          </mxGeometry>
        </mxCell>
        <mxCell id="PKqtleqCOF1Dtrx_e0O3-21" value="I2c" style="edgeLabel;html=1;align=center;verticalAlign=middle;resizable=0;points=[];" vertex="1" connectable="0" parent="PKqtleqCOF1Dtrx_e0O3-20">
          <mxGeometry x="-0.1886" y="2" relative="1" as="geometry">
            <mxPoint as="offset" />
          </mxGeometry>
        </mxCell>
        <mxCell id="PKqtleqCOF1Dtrx_e0O3-22" value="" style="endArrow=classic;html=1;rounded=0;entryX=0.5;entryY=0;entryDx=0;entryDy=0;" edge="1" parent="1" target="PKqtleqCOF1Dtrx_e0O3-5">
          <mxGeometry width="50" height="50" relative="1" as="geometry">
            <mxPoint x="500" y="560" as="sourcePoint" />
            <mxPoint x="500" y="490" as="targetPoint" />
            <Array as="points">
              <mxPoint x="300" y="560" />
            </Array>
          </mxGeometry>
        </mxCell>
        <mxCell id="PKqtleqCOF1Dtrx_e0O3-24" value="" style="endArrow=classic;html=1;rounded=0;entryX=0.5;entryY=0;entryDx=0;entryDy=0;" edge="1" parent="1" target="PKqtleqCOF1Dtrx_e0O3-7">
          <mxGeometry width="50" height="50" relative="1" as="geometry">
            <mxPoint x="300" y="560" as="sourcePoint" />
            <mxPoint x="320" y="520" as="targetPoint" />
            <Array as="points">
              <mxPoint x="100" y="560" />
            </Array>
          </mxGeometry>
        </mxCell>
        <mxCell id="PKqtleqCOF1Dtrx_e0O3-25" value="" style="endArrow=classic;html=1;rounded=0;exitX=0.5;exitY=0;exitDx=0;exitDy=0;entryX=0.5;entryY=1;entryDx=0;entryDy=0;startArrow=classic;startFill=1;" edge="1" parent="1" source="PKqtleqCOF1Dtrx_e0O3-14" target="PKqtleqCOF1Dtrx_e0O3-10">
          <mxGeometry width="50" height="50" relative="1" as="geometry">
            <mxPoint x="450" y="340" as="sourcePoint" />
            <mxPoint x="500" y="290" as="targetPoint" />
          </mxGeometry>
        </mxCell>
        <mxCell id="PKqtleqCOF1Dtrx_e0O3-26" value="I2c" style="edgeLabel;html=1;align=center;verticalAlign=middle;resizable=0;points=[];" vertex="1" connectable="0" parent="PKqtleqCOF1Dtrx_e0O3-25">
          <mxGeometry x="-0.0131" relative="1" as="geometry">
            <mxPoint as="offset" />
          </mxGeometry>
        </mxCell>
        <mxCell id="PKqtleqCOF1Dtrx_e0O3-27" value="" style="endArrow=classic;html=1;rounded=0;entryX=0.5;entryY=1;entryDx=0;entryDy=0;exitX=0.75;exitY=0;exitDx=0;exitDy=0;" edge="1" parent="1" source="PKqtleqCOF1Dtrx_e0O3-14" target="PKqtleqCOF1Dtrx_e0O3-8">
          <mxGeometry width="50" height="50" relative="1" as="geometry">
            <mxPoint x="460" y="360" as="sourcePoint" />
            <mxPoint x="510" y="310" as="targetPoint" />
            <Array as="points">
              <mxPoint x="365" y="310" />
              <mxPoint x="503" y="310" />
            </Array>
          </mxGeometry>
        </mxCell>
        <mxCell id="PKqtleqCOF1Dtrx_e0O3-28" value="&lt;div&gt;GPIO&lt;/div&gt;" style="edgeLabel;html=1;align=center;verticalAlign=middle;resizable=0;points=[];" vertex="1" connectable="0" parent="PKqtleqCOF1Dtrx_e0O3-27">
          <mxGeometry x="-0.1073" relative="1" as="geometry">
            <mxPoint as="offset" />
          </mxGeometry>
        </mxCell>
        <mxCell id="PKqtleqCOF1Dtrx_e0O3-29" value="" style="endArrow=classic;html=1;rounded=0;exitX=1;exitY=0.5;exitDx=0;exitDy=0;entryX=0;entryY=0.5;entryDx=0;entryDy=0;startArrow=classic;startFill=1;" edge="1" parent="1" source="PKqtleqCOF1Dtrx_e0O3-14" target="PKqtleqCOF1Dtrx_e0O3-13">
          <mxGeometry width="50" height="50" relative="1" as="geometry">
            <mxPoint x="480" y="380" as="sourcePoint" />
            <mxPoint x="530" y="330" as="targetPoint" />
            <Array as="points">
              <mxPoint x="540" y="370" />
              <mxPoint x="540" y="500" />
            </Array>
          </mxGeometry>
        </mxCell>
        <mxCell id="PKqtleqCOF1Dtrx_e0O3-30" value="UART" style="edgeLabel;html=1;align=center;verticalAlign=middle;resizable=0;points=[];" vertex="1" connectable="0" parent="PKqtleqCOF1Dtrx_e0O3-29">
          <mxGeometry x="0.1341" y="2" relative="1" as="geometry">
            <mxPoint x="-2" as="offset" />
          </mxGeometry>
        </mxCell>
        <mxCell id="PKqtleqCOF1Dtrx_e0O3-31" value="" style="endArrow=classic;startArrow=classic;html=1;rounded=0;entryX=0.5;entryY=1;entryDx=0;entryDy=0;exitX=0.444;exitY=-0.015;exitDx=0;exitDy=0;exitPerimeter=0;" edge="1" parent="1" source="PKqtleqCOF1Dtrx_e0O3-16" target="PKqtleqCOF1Dtrx_e0O3-13">
          <mxGeometry width="50" height="50" relative="1" as="geometry">
            <mxPoint x="630" y="580" as="sourcePoint" />
            <mxPoint x="680" y="530" as="targetPoint" />
          </mxGeometry>
        </mxCell>
        <mxCell id="PKqtleqCOF1Dtrx_e0O3-32" value="RS485" style="edgeLabel;html=1;align=center;verticalAlign=middle;resizable=0;points=[];" vertex="1" connectable="0" parent="PKqtleqCOF1Dtrx_e0O3-31">
          <mxGeometry x="-0.3453" y="-1" relative="1" as="geometry">
            <mxPoint x="-2" y="-3" as="offset" />
          </mxGeometry>
        </mxCell>
        <mxCell id="PKqtleqCOF1Dtrx_e0O3-35" value="" style="endArrow=classic;startArrow=classic;html=1;rounded=0;entryX=0;entryY=0.5;entryDx=0;entryDy=0;exitX=1;exitY=0.5;exitDx=0;exitDy=0;" edge="1" parent="1" source="PKqtleqCOF1Dtrx_e0O3-1" target="PKqtleqCOF1Dtrx_e0O3-14">
          <mxGeometry width="50" height="50" relative="1" as="geometry">
            <mxPoint x="160" y="490" as="sourcePoint" />
            <mxPoint x="210" y="440" as="targetPoint" />
          </mxGeometry>
        </mxCell>
        <mxCell id="PKqtleqCOF1Dtrx_e0O3-36" value="GPIO" style="edgeLabel;html=1;align=center;verticalAlign=middle;resizable=0;points=[];" vertex="1" connectable="0" parent="PKqtleqCOF1Dtrx_e0O3-35">
          <mxGeometry x="-0.3408" relative="1" as="geometry">
            <mxPoint x="18" as="offset" />
          </mxGeometry>
        </mxCell>
        <mxCell id="PKqtleqCOF1Dtrx_e0O3-37" value="" style="endArrow=classic;html=1;rounded=0;exitX=0;exitY=0.5;exitDx=0;exitDy=0;entryX=1;entryY=0.5;entryDx=0;entryDy=0;" edge="1" parent="1" source="PKqtleqCOF1Dtrx_e0O3-10" target="0xC4HbDB4452kfhdaKBw-46">
          <mxGeometry width="50" height="50" relative="1" as="geometry">
            <mxPoint x="210" y="170" as="sourcePoint" />
            <mxPoint x="260" y="120" as="targetPoint" />
          </mxGeometry>
        </mxCell>
        <mxCell id="PKqtleqCOF1Dtrx_e0O3-38" value="PWM" style="edgeLabel;html=1;align=center;verticalAlign=middle;resizable=0;points=[];" vertex="1" connectable="0" parent="PKqtleqCOF1Dtrx_e0O3-37">
          <mxGeometry x="0.0366" y="-1" relative="1" as="geometry">
            <mxPoint as="offset" />
          </mxGeometry>
        </mxCell>
        <mxCell id="PKqtleqCOF1Dtrx_e0O3-39" value="" style="endArrow=classic;html=1;rounded=0;exitX=0.5;exitY=0;exitDx=0;exitDy=0;entryX=0.5;entryY=1;entryDx=0;entryDy=0;" edge="1" parent="1" source="0xC4HbDB4452kfhdaKBw-46" target="PKqtleqCOF1Dtrx_e0O3-3">
          <mxGeometry width="50" height="50" relative="1" as="geometry">
            <mxPoint x="200" y="160" as="sourcePoint" />
            <mxPoint x="250" y="110" as="targetPoint" />
          </mxGeometry>
        </mxCell>
        <mxCell id="PKqtleqCOF1Dtrx_e0O3-40" value="Napięcie" style="edgeLabel;html=1;align=center;verticalAlign=middle;resizable=0;points=[];" vertex="1" connectable="0" parent="PKqtleqCOF1Dtrx_e0O3-39">
          <mxGeometry x="-0.1067" y="1" relative="1" as="geometry">
            <mxPoint as="offset" />
          </mxGeometry>
        </mxCell>
        <mxCell id="PKqtleqCOF1Dtrx_e0O3-41" value="" style="endArrow=classic;startArrow=classic;html=1;rounded=0;exitX=1;exitY=0.25;exitDx=0;exitDy=0;entryX=0;entryY=0.5;entryDx=0;entryDy=0;" edge="1" parent="1" source="PKqtleqCOF1Dtrx_e0O3-14" target="0xC4HbDB4452kfhdaKBw-9">
          <mxGeometry width="50" height="50" relative="1" as="geometry">
            <mxPoint x="510" y="350" as="sourcePoint" />
            <mxPoint x="560" y="300" as="targetPoint" />
            <Array as="points">
              <mxPoint x="570" y="355" />
              <mxPoint x="570" y="410" />
            </Array>
          </mxGeometry>
        </mxCell>
        <mxCell id="PKqtleqCOF1Dtrx_e0O3-42" value="I2c" style="edgeLabel;html=1;align=center;verticalAlign=middle;resizable=0;points=[];" vertex="1" connectable="0" parent="PKqtleqCOF1Dtrx_e0O3-41">
          <mxGeometry x="0.03" y="1" relative="1" as="geometry">
            <mxPoint x="-38" as="offset" />
          </mxGeometry>
        </mxCell>
        <mxCell id="PKqtleqCOF1Dtrx_e0O3-43" value="&lt;div align=&quot;center&quot;&gt;&lt;font style=&quot;font-size: 12px;&quot;&gt;Kamera&lt;/font&gt;&lt;/div&gt;&lt;div align=&quot;center&quot;&gt;&lt;font style=&quot;font-size: 12px;&quot;&gt;&lt;span style=&quot;font-weight: normal;&quot;&gt;&quot;Raspberry Pi Camera Module 3&quot;&lt;/span&gt;&lt;/font&gt;&lt;/div&gt;" style="rounded=0;whiteSpace=wrap;html=1;fillColor=#f8cecc;strokeColor=#b85450;align=center;" vertex="1" parent="1">
          <mxGeometry x="20" y="460" width="159" height="80" as="geometry" />
        </mxCell>
        <mxCell id="PKqtleqCOF1Dtrx_e0O3-44" value="" style="endArrow=classic;startArrow=classic;html=1;rounded=0;exitX=0.5;exitY=0;exitDx=0;exitDy=0;entryX=0.5;entryY=1;entryDx=0;entryDy=0;" edge="1" parent="1" source="PKqtleqCOF1Dtrx_e0O3-43" target="PKqtleqCOF1Dtrx_e0O3-1">
          <mxGeometry width="50" height="50" relative="1" as="geometry">
            <mxPoint x="70" y="450" as="sourcePoint" />
            <mxPoint x="120" y="400" as="targetPoint" />
          </mxGeometry>
        </mxCell>
        <mxCell id="PKqtleqCOF1Dtrx_e0O3-45" value="CSI" style="edgeLabel;html=1;align=center;verticalAlign=middle;resizable=0;points=[];" vertex="1" connectable="0" parent="PKqtleqCOF1Dtrx_e0O3-44">
          <mxGeometry x="0.0533" y="1" relative="1" as="geometry">
            <mxPoint as="offset" />
          </mxGeometry>
        </mxCell>
        <mxCell id="PKqtleqCOF1Dtrx_e0O3-46" value="" style="endArrow=classic;html=1;rounded=0;exitX=0.25;exitY=0;exitDx=0;exitDy=0;entryX=0.5;entryY=1;entryDx=0;entryDy=0;" edge="1" parent="1" source="PKqtleqCOF1Dtrx_e0O3-8" target="0xC4HbDB4452kfhdaKBw-44">
          <mxGeometry width="50" height="50" relative="1" as="geometry">
            <mxPoint x="480" y="120" as="sourcePoint" />
            <mxPoint x="530" y="70" as="targetPoint" />
            <Array as="points">
              <mxPoint x="465" y="160" />
              <mxPoint x="370" y="160" />
            </Array>
          </mxGeometry>
        </mxCell>
        <mxCell id="PKqtleqCOF1Dtrx_e0O3-47" value="Przewód" style="edgeLabel;html=1;align=center;verticalAlign=middle;resizable=0;points=[];" vertex="1" connectable="0" parent="PKqtleqCOF1Dtrx_e0O3-46">
          <mxGeometry x="0.0112" y="2" relative="1" as="geometry">
            <mxPoint x="-1" y="-2" as="offset" />
          </mxGeometry>
        </mxCell>
      </root>
    </mxGraphModel>
  </diagram>
</mxfile>
